<?xml version="1.0" encoding="utf-8" ?>
<svg xmlns="http://www.w3.org/2000/svg" xmlns:xlink="http://www.w3.org/1999/xlink" width="108" height="30">
	<defs>
		<clipPath id="clip_0">
			<rect x="-340" y="-12" width="1920" height="2110" clip-rule="evenodd"/>
		</clipPath>
	</defs>
	<g clip-path="url(#clip_0)">
		<path fill="rgb(80,148,218)" stroke="none" d="M21 6C21 6 22 6 22 5C22 4 21 4 21 4L15 4L15 1.92707C15 0.778807 14.2896 0 13.1619 0L8.70428 0C7.57612 0 7 0.778807 7 1.92707L7 4L1 4C1 4 0 4 0 5C0 6 1 6 1 6L21 6ZM13 4L13 2L9 2L9 4L13 4ZM4 7L18 7C20.9959 7 20.9959 9.98977 20.9959 9.98977L20.9959 25.6987C20.9959 25.6987 21 29 18 29L3.7312 29C3.7312 29 3.20486 30 2 30C0.795136 30 0 29 0 28C0 27 0.778503 26 2 26C3.2215 26 3.7312 27 3.7312 27L17 27C19 27 19 25 19 25L19 11C19 11 19 9 17 9L5 9C3 9 3 11 3 11L3 18.2659C3 18.2659 4 18.8101 4 20C4 21.1899 3 22 2 22C1 22 0 21.2127 0 20C0 18.7873 1 18.2706 1 18.2706L1 10C1 10 1 7 4 7ZM7 13C7 13 7 12 8 12C9 12 9 13 9 13L9 23C9 23 9 24 8 24C7 24 7 23 7 23L7 13ZM14 12C13 12 13 13 13 13L13 23C13 23 13 24 14 24C15 24 15 23 15 23L15 13C15 13 15 12 14 12Z" fill-rule="evenodd"/>
	</g>
	<defs>
		<clipPath id="clip_1">
			<rect x="-340" y="-12" width="1920" height="2110" clip-rule="evenodd"/>
		</clipPath>
	</defs>
	<g clip-path="url(#clip_1)">
		<path fill="rgb(71,83,100)" stroke="none" transform="translate(30 6)" d="M2.31464 6.795C3.41474 5.865 4.71048 5.4 6.2019 5.4C7.90005 5.4 9.36191 6.01499 10.5875 7.245C11.193 7.8525 11.647 8.52937 11.9497 9.27563C12.2524 10.0219 12.4038 10.83 12.4038 11.7C12.4038 13.455 11.7984 14.94 10.5875 16.155C9.36191 17.385 7.90005 18 6.2019 18C4.48899 18 3.02713 17.385 1.81627 16.155C0.605418 14.925 0 13.44 0 11.7L0 1.17C0 0.832498 0.108901 0.553126 0.326707 0.331875C0.544513 0.110624 0.819535 0 1.15178 0C1.47665 0 1.75167 0.110624 1.97686 0.331875C2.20205 0.553126 2.31464 0.832498 2.31464 1.17L2.31464 6.795ZM16.9113 4.14C17.1771 3.87 17.31 3.54375 17.31 3.16125C17.31 2.77875 17.1771 2.4525 16.9113 2.1825C16.6455 1.9125 16.3243 1.7775 15.9477 1.7775C15.5712 1.7775 15.25 1.9125 14.9842 2.1825C14.7184 2.4525 14.5855 2.77875 14.5855 3.16125C14.5855 3.54375 14.7184 3.87 14.9842 4.14C15.25 4.41 15.5712 4.545 15.9477 4.545C16.3243 4.545 16.6455 4.41 16.9113 4.14ZM14.796 16.8188L14.796 6.58125C14.796 6.25125 14.9086 5.97188 15.1337 5.74312C15.3589 5.51437 15.6303 5.4 15.9478 5.4C16.2652 5.4 16.5366 5.51437 16.7617 5.74312C16.9869 5.97188 17.1032 6.25125 17.1106 6.58125L17.1106 16.8188C17.1032 17.1488 16.9869 17.4281 16.7617 17.6569C16.5366 17.8856 16.2652 18 15.9478 18C15.6303 18 15.3589 17.8856 15.1337 17.6569C14.9086 17.4281 14.796 17.1488 14.796 16.8188ZM25.2617 5.4C23.9327 5.4 22.7772 5.78625 21.7953 6.55875C21.7953 6.25125 21.6827 5.98125 21.4575 5.74875C21.2323 5.51625 20.961 5.4 20.6435 5.4C20.3186 5.4 20.0436 5.51625 19.8184 5.74875C19.5932 5.98125 19.4806 6.25875 19.4806 6.58125L19.4806 16.8188C19.4806 17.1488 19.5932 17.4281 19.8184 17.6569C20.0436 17.8856 20.3186 18 20.6435 18C20.961 18 21.2323 17.8856 21.4575 17.6569C21.6827 17.4281 21.7953 17.1488 21.7953 16.8188L21.7953 11.2725C21.7953 10.7925 21.8857 10.3388 22.0666 9.91125C22.2475 9.48375 22.4967 9.10875 22.8141 8.78625C23.1316 8.46375 23.4989 8.21063 23.9161 8.02688C24.3332 7.84312 24.7818 7.75125 25.2617 7.75125C25.7342 7.75125 26.1809 7.845 26.6017 8.0325C27.0226 8.22 27.3899 8.47312 27.7037 8.79187C28.0175 9.11063 28.2666 9.48375 28.4512 9.91125C28.6358 10.3388 28.7281 10.7925 28.7281 11.2725L28.7281 16.8188C28.7281 17.1488 28.8407 17.4281 29.0659 17.6569C29.2911 17.8856 29.5661 18 29.891 18C30.2084 18 30.4798 17.8856 30.705 17.6569C30.9301 17.4281 31.0427 17.1488 31.0427 16.8188L31.0427 11.2725C31.0427 10.4625 30.8877 9.69938 30.5776 8.98313C30.2675 8.26687 29.8467 7.64438 29.3151 7.11563C28.7835 6.58687 28.1688 6.16875 27.4711 5.86125C26.7734 5.55375 26.0369 5.4 25.2617 5.4ZM50.2908 16.8188C50.2908 17.1488 50.1782 17.4281 49.953 17.6569C49.7278 17.8856 49.4565 18 49.139 18C48.8141 18 48.541 17.8856 48.3195 17.6569C48.098 17.4281 47.9872 17.1488 47.9872 16.8188L47.9872 10.4175C47.9872 10.0575 47.9189 9.71625 47.7823 9.39375C47.6457 9.07125 47.4593 8.78813 47.2231 8.54438C46.9868 8.30062 46.7081 8.1075 46.3869 7.965C46.0657 7.8225 45.7206 7.75125 45.3514 7.75125C44.9896 7.75125 44.65 7.8225 44.3325 7.965C44.015 8.1075 43.7363 8.29875 43.4964 8.53875C43.2564 8.77875 43.0682 9.06 42.9316 9.3825C42.795 9.705 42.7267 10.05 42.7267 10.4175L42.7267 16.8188C42.7267 17.1488 42.6141 17.4281 42.3889 17.6569C42.1637 17.8856 41.8924 18 41.5749 18C41.25 18 40.975 17.8856 40.7498 17.6569C40.5246 17.4281 40.412 17.1488 40.412 16.8188L40.412 10.4175C40.412 10.05 40.3419 9.705 40.2016 9.3825C40.0613 9.06 39.8731 8.77875 39.6368 8.53875C39.4005 8.29875 39.1237 8.1075 38.8062 7.965C38.4887 7.8225 38.1491 7.75125 37.7873 7.75125C37.4255 7.75125 37.0859 7.82062 36.7684 7.95938C36.4509 8.09813 36.1722 8.28937 35.9323 8.53312C35.6923 8.77688 35.504 9.06 35.3675 9.3825C35.2309 9.705 35.1626 10.05 35.1626 10.4175L35.1626 16.8188C35.1626 17.1488 35.05 17.4281 34.8248 17.6569C34.5996 17.8856 34.3283 18 34.0108 18C33.6859 18 33.4109 17.8856 33.1857 17.6569C32.9605 17.4281 32.8479 17.1488 32.8479 16.8188L32.8479 6.57C32.8479 6.2475 32.9605 5.97188 33.1857 5.74312C33.4109 5.51437 33.6822 5.4 33.9997 5.4C34.2581 5.4 34.487 5.47312 34.6864 5.61938C34.8857 5.76563 35.0223 5.95875 35.0961 6.19875C35.8861 5.66625 36.7832 5.4 37.7873 5.4C38.5256 5.4 39.2197 5.54812 39.8694 5.84438C40.5191 6.14063 41.0876 6.58875 41.5749 7.18875C42.6012 5.99624 43.86 5.4 45.3514 5.4C46.0233 5.4 46.6601 5.53312 47.2618 5.79938C47.8636 6.06563 48.3878 6.42562 48.8344 6.87937C49.2811 7.33313 49.6355 7.86562 49.8976 8.47688C50.1597 9.08813 50.2908 9.735 50.2908 10.4175L50.2908 16.8188ZM62.3623 16.83L62.3623 16.605C61.8086 17.055 61.2069 17.4 60.5572 17.64C59.9074 17.88 59.2134 18 58.4751 18C56.7622 18 55.3003 17.385 54.0895 16.155C52.8786 14.925 52.2732 13.44 52.2732 11.7C52.2732 9.95999 52.8786 8.47501 54.0895 7.245C55.3003 6.01499 56.7622 5.4 58.4751 5.4C60.1732 5.4 61.6351 6.01499 62.8607 7.245C64.0716 8.47501 64.677 9.95999 64.677 11.7L64.677 16.83C64.677 17.1525 64.5644 17.4281 64.3392 17.6569C64.114 17.8856 63.8427 18 63.5252 18C63.2003 18 62.9253 17.8856 62.7001 17.6569C62.4749 17.4281 62.3623 17.1525 62.3623 16.83ZM72.2189 5.4C70.89 5.4 69.7345 5.78625 68.7525 6.55875C68.7525 6.25125 68.6399 5.98125 68.4147 5.74875C68.1896 5.51625 67.9182 5.4 67.6007 5.4C67.2759 5.4 67.0009 5.51625 66.7757 5.74875C66.5505 5.98125 66.4379 6.25875 66.4379 6.58125L66.4379 16.8188C66.4379 17.1488 66.5505 17.4281 66.7757 17.6569C67.0009 17.8856 67.2759 18 67.6007 18C67.9182 18 68.1896 17.8856 68.4147 17.6569C68.6399 17.4281 68.7525 17.1488 68.7525 16.8188L68.7525 11.2725C68.7525 10.7925 68.843 10.3388 69.0239 9.91125C69.2047 9.48375 69.4539 9.10875 69.7714 8.78625C70.0889 8.46375 70.4562 8.21063 70.8734 8.02688C71.2905 7.84312 71.739 7.75125 72.2189 7.75125C72.6915 7.75125 73.1382 7.845 73.559 8.0325C73.9798 8.22 74.3472 8.47312 74.6609 8.79187C74.9747 9.11063 75.2239 9.48375 75.4085 9.91125C75.5931 10.3388 75.6854 10.7925 75.6854 11.2725L75.6854 16.8188C75.6854 17.1488 75.798 17.4281 76.0231 17.6569C76.2483 17.8856 76.5234 18 76.8482 18Q77.3244 18 77.6622 17.6569C77.8874 17.4281 78 17.1488 78 16.8188L78 11.2725C78 10.4625 77.845 9.69938 77.5349 8.98313C77.2248 8.26687 76.8039 7.64438 76.2723 7.11563C75.7407 6.58687 75.1261 6.16875 74.4284 5.86125C73.7307 5.55375 72.9942 5.4 72.2189 5.4ZM6.2019 15.6488C6.74088 15.6488 7.24663 15.5438 7.71915 15.3337C8.19168 15.1237 8.60329 14.8388 8.954 14.4788C9.3047 14.1187 9.58157 13.7006 9.78461 13.2244C9.98765 12.7481 10.0892 12.24 10.0892 11.7C10.0892 11.16 9.98765 10.6519 9.78461 10.1756C9.58157 9.69937 9.3047 9.28125 8.954 8.92125C8.60329 8.56125 8.19168 8.27625 7.71915 8.06625C7.24663 7.85625 6.74088 7.75125 6.2019 7.75125C5.65554 7.75125 5.1461 7.85625 4.67358 8.06625C4.20105 8.27625 3.79128 8.55937 3.44427 8.91562C3.09726 9.27188 2.82224 9.69 2.6192 10.17C2.41616 10.65 2.31464 11.16 2.31464 11.7C2.31464 12.24 2.41616 12.75 2.6192 13.23C2.82224 13.71 3.09726 14.1281 3.44427 14.4844C3.79128 14.8406 4.20105 15.1237 4.67358 15.3337C5.1461 15.5438 5.65554 15.6488 6.2019 15.6488ZM56.9468 8.06625C57.4193 7.85625 57.9287 7.75125 58.4751 7.75125C59.0141 7.75125 59.5198 7.85625 59.9923 8.06625C60.4649 8.27625 60.8765 8.56125 61.2272 8.92125C61.5779 9.28125 61.8547 9.69937 62.0578 10.1756C62.2608 10.6519 62.3623 11.16 62.3623 11.7C62.3623 12.24 62.2608 12.7481 62.0578 13.2244C61.8547 13.7006 61.5779 14.1187 61.2272 14.4788C60.8765 14.8388 60.4649 15.1237 59.9923 15.3337C59.5198 15.5438 59.0141 15.6488 58.4751 15.6488C57.9287 15.6488 57.4193 15.5438 56.9468 15.3337C56.4742 15.1237 56.0645 14.8406 55.7174 14.4844C55.3704 14.1281 55.0954 13.71 54.8924 13.23C54.6893 12.75 54.5878 12.24 54.5878 11.7C54.5878 11.16 54.6893 10.65 54.8924 10.17C55.0954 9.69 55.3704 9.27188 55.7174 8.91562C56.0645 8.55937 56.4742 8.27625 56.9468 8.06625Z" fill-rule="evenodd"/>
	</g>

</svg>