<?xml version="1.0" encoding="utf-8" ?>
<svg xmlns="http://www.w3.org/2000/svg" xmlns:xlink="http://www.w3.org/1999/xlink" width="32" height="40">
	<defs>
		<clipPath id="clip_0">
			<rect x="-1170" y="-170" width="1920" height="2110" clip-rule="evenodd"/>
		</clipPath>
	</defs>
	<g clip-path="url(#clip_0)">
		<path fill="rgb(80,148,218)" stroke="none" d="M26.5325 5L30.6666 5C31.403 5 32 5.8014 32 6.52171L32 38.6956C32 39.416 31.403 40 30.6666 40L1.33336 40C0.596961 40 0 39.4159 0 38.6956L0 6.52178C0 5.8014 0.597041 5 1.33336 5L19 5L19 1.30437C19 0.583983 19.2637 0 20 0C23.2194 0 25.9131 2.02672 26.5325 5ZM21 30.2859C21.9706 30.2859 24.2151 30.9269 25 31.3721L25 5.74634C25 4.04587 22.5521 2.59517 21 2.05681L21 30.2859ZM19 16L19 7L2 7L2 22C2.44171 21.9521 3.5535 21.7391 4 21.7391C6.66568 21.7391 9.18985 22.5764 11.2998 24.1603C12.8154 25.2982 14.0373 26.7883 14.8517 28.4667C15.9982 27.7214 17.6284 27.1902 19 27L19 18L6 18C6 18 5 18 5 17C5 16 6 16 6 16L19 16ZM25.5339 38C25.9893 37.2319 27 36.6074 27 34.7826L27 7L30 7L30 38L25.5339 38ZM6 10L12 10C12 10 13 10 13 11C13 12 12 12 12 12L6 12C6 12 5 12 5 11C5 10 6 10 6 10ZM22 38L2 38L2 24C2.44003 23.9385 3.5523 23.4692 4 23.4692C8.15757 23.4692 11.8511 26.199 12.9817 30.1075C13.2626 31.0784 14.5093 31.377 15.2205 30.6618C16.1705 29.7062 17.6967 29.2568 19 29L19 30.8695C19 31.5899 19.2636 32.1739 20 32.1739L21.3334 32.1739C22.8038 32.1739 25 33.3442 25 34.7826C25 36.2209 23.4704 38 22 38Z" fill-rule="evenodd"/>
	</g>

</svg>