<?xml version="1.0" encoding="utf-8" ?>
<svg xmlns="http://www.w3.org/2000/svg" xmlns:xlink="http://www.w3.org/1999/xlink" width="40" height="36">
	<defs>
		<clipPath id="clip_0">
			<rect x="-380" y="-172" width="1920" height="2110" clip-rule="evenodd"/>
		</clipPath>
	</defs>
	<g clip-path="url(#clip_0)">
		<path fill="rgb(80,148,218)" stroke="none" d="M39.7023 0.375117C39.3562 0.00388554 38.8101 -0.0956583 38.3578 0.0936995L0.701849 15.886C0.284665 16.0611 0.0104482 16.4526 0.000292028 16.8897C-0.00986414 17.326 0.245603 17.7287 0.654974 17.9218L9.64631 22.158L11.8869 35.0358C11.9596 35.5246 12.3603 35.9175 12.8822 35.9886C13.2572 36.0403 13.6299 35.9138 13.8877 35.6593L20.9861 28.8589L31.1157 35.791C31.4407 36.0126 31.8594 36.0612 32.2281 35.9213C32.5977 35.7813 32.868 35.4707 32.9461 35.0972L39.9773 1.34211C40.0468 1.00756 39.957 0.649049 39.7023 0.375117ZM17.1955 23.506L31.0024 32.9536L36.9195 4.54698L17.1955 23.506ZM10.5744 20.093L3.95338 16.9735L30.111 6.00346L10.5744 20.093ZM13.1517 28.6508L14.2416 23.4304C14.2853 23.223 14.3955 23.0165 14.5611 22.8578L26.3485 11.527L11.976 21.8923L13.1517 28.6508ZM14.9549 31.4612L16.1845 25.5732L19.0525 27.5356L14.9549 31.4612Z" fill-rule="evenodd"/>
	</g>

</svg>