<?xml version="1.0" encoding="UTF-8"?>
<svg width="781px" height="500px" viewBox="0 0 781 500" version="1.1" xmlns="http://www.w3.org/2000/svg" xmlns:xlink="http://www.w3.org/1999/xlink">
    <!-- Generator: Sketch 51.3 (57544) - http://www.bohemiancoding.com/sketch -->
    <title>service-box</title>
    <desc>Created with Sketch.</desc>
    <defs>
        <radialGradient cx="50%" cy="50%" fx="50%" fy="50%" r="50.0378787%" id="radialGradient-1">
            <stop stop-color="#FEFEFE" offset="0%"></stop>
            <stop stop-color="#FFFFFF" offset="83.5343793%"></stop>
            <stop stop-color="#E3F0FA" offset="100%"></stop>
        </radialGradient>
    </defs>
    <g id="pages/home" stroke="none" stroke-width="1" fill="none" fill-rule="evenodd">
        <g id="pages/home/ro-home-xl" transform="translate(-359.000000, -988.000000)">
            <g id="service-box" transform="translate(356.000000, 986.000000)">
                <circle id="background" fill="url(#radialGradient-1)" cx="394" cy="252" r="250"></circle>
                <circle id="background" stroke="#779EC6" fill="url(#radialGradient-1)" cx="394" cy="252" r="210"></circle>
                <circle id="background" fill="#E3F0FA" cx="394" cy="252" r="170"></circle>
                <g id="computer" transform="translate(146.000000, 94.000000)">
                    <g id="mouse" transform="translate(350.000000, 260.000000)" stroke="#779EC6" stroke-width="2">
                        <path d="M32.5836524,0 C32.5836524,0 -18.3283045,23.60928 7.12767397,43.1471838 C32.5836524,62.6850875 94.5125017,79.085496 106,107" id="Mouse-Wire"></path>
                        <path d="M82,137 C97,137 122,137 122,137 C122,137 146,137 146,122 C146,107 122,99 102,99 C82,99 61,110 61,121 C61,132 67,137 82,137 Z" fill="#FFFFFF"></path>
                    </g>
                    <g id="keyboard" transform="translate(0.000000, 370.000000)">
                        <g id="key" transform="translate(15.000000, 0.000000)" fill="#FFFFFF" stroke="#779EC6" stroke-width="2">
                            <rect x="1" y="1" width="22" height="12" rx="6"></rect>
                            <rect x="30" y="1" width="22" height="12" rx="6"></rect>
                            <rect x="59" y="1" width="22" height="12" rx="6"></rect>
                            <rect x="201" y="1" width="22" height="12" rx="6"></rect>
                            <rect x="230" y="1" width="22" height="12" rx="6"></rect>
                            <rect x="327" y="1" width="22" height="12" rx="6"></rect>
                            <rect x="298" y="1" width="22" height="12" rx="6"></rect>
                            <rect x="269" y="1" width="22" height="12" rx="6"></rect>
                            <rect x="88" y="1" width="106" height="12" rx="6"></rect>
                        </g>
                        <g id="keyboard-unit" transform="translate(0.000000, 7.000000)">
                            <rect stroke="#779EC6" stroke-width="2" fill="#FFFFFF" x="1" y="1" width="378" height="18" rx="9"></rect>
                            <rect fill="#779EC6" x="2" y="11" width="376" height="2"></rect>
                        </g>
                    </g>
                    <g id="imac" transform="translate(50.000000, 0.000000)">
                        <g id="leg" transform="translate(126.000000, 266.000000)" fill="#FFFFFF" stroke="#779EC6" stroke-width="2">
                            <rect id="foot" x="1" y="49" width="142" height="8" rx="4"></rect>
                            <path d="M21.7584604,1 L8.3184604,49 L135.68154,49 L122.24154,1 L21.7584604,1 Z"></path>
                        </g>
                        <g id="candy-bar">
                            <path d="M1,227 L395,227 L395,18.009788 C395,8.61609543 387.390283,1 378.004513,1 L17.9954872,1 C8.61597617,1 1,8.61901386 1,18.009788 L1,227 Z" id="screen-unit" stroke="#779EC6" stroke-width="2" fill="#DEEAF4"></path>
                            <path d="M1,227 L1,250 C1,259.388841 8.61115925,267 18,267 L378,267 C387.388841,267 395,259.388841 395,250 L395,227 L1,227 Z" id="technical-unit" stroke="#779EC6" stroke-width="2" fill="#FFFFFF"></path>
                            <rect id="screen" stroke="#779EC6" stroke-width="2" fill="#FFFFFF" x="19" y="21" width="358" height="188"></rect>
                            <path d="M198,254 C201.865993,254 205,250.865993 205,247 C205,243.134007 201.865993,240 198,240 C194.134007,240 191,243.134007 191,247 C191,250.865993 194.134007,254 198,254 Z" id="logo" stroke="#779EC6" stroke-width="2" fill="#F5F6FA"></path>
                            <path d="M198,13 C199.104569,13 200,12.1045695 200,11 C200,9.8954305 199.104569,9 198,9 C196.895431,9 196,9.8954305 196,11 C196,12.1045695 196.895431,13 198,13 Z" id="camera" fill="#7E8FA4"></path>
                        </g>
                    </g>
                </g>
                <circle id="mark" fill="#779EC6" cx="394.5" cy="42.5" r="5.5"></circle>
                <circle id="Oval" fill="#779EC6" cx="604.5" cy="252.5" r="5.5"></circle>
                <circle id="Oval" fill="#779EC6" cx="545.5" cy="396.5" r="5.5"></circle>
                <circle id="Oval" fill="#779EC6" cx="240.5" cy="396.5" r="5.5"></circle>
                <circle id="Oval" fill="#779EC6" cx="184.5" cy="252.5" r="5.5"></circle>
                <text id="Несвоевременный-выво" font-size="12" font-weight="normal" line-spacing="14" fill="#475364">
                    <tspan x="318.62" y="11">Несвоевременный вывоз </tspan>
                    <tspan x="304.988" y="25">отходов с мусорных площадок</tspan>
                </text>
                <text id="Обнаружение-несанкци" font-size="12" font-weight="normal" line-spacing="14" fill="#475364">
                    <tspan x="90.848" y="242">Обнаружение </tspan>
                    <tspan x="1.172" y="256">несанкционированной свалки </tspan>
                    <tspan x="128.348" y="270">мусора</tspan>
                </text>
                <text id="Игнорирование-технич" font-size="12" font-weight="normal" line-spacing="14" fill="#475364">
                    <tspan x="619" y="242">Игнорирование технического </tspan>
                    <tspan x="619" y="256">обслуживания мусорной </tspan>
                    <tspan x="619" y="270">площадки </tspan>
                </text>
                <text id="Заключение-договора" font-size="12" font-weight="normal" line-spacing="14" fill="#475364">
                    <tspan x="560" y="392">Заключение договора на </tspan>
                    <tspan x="560" y="406">вывоз мусора</tspan>
                </text>
                <text id="Организация-новой-ко" font-size="12" font-weight="normal" line-spacing="14" fill="#475364">
                    <tspan x="113.956" y="392">Организация новой </tspan>
                    <tspan x="87.088" y="406">контейнерной площадки</tspan>
                </text>
            </g>
        </g>
    </g>
</svg>