<?xml version="1.0" encoding="utf-8" ?>
<svg xmlns="http://www.w3.org/2000/svg" xmlns:xlink="http://www.w3.org/1999/xlink" width="18" height="18">
	<defs>
		<clipPath id="clip_0">
			<rect x="-1206" y="-327" width="1920" height="2110" clip-rule="evenodd"/>
		</clipPath>
	</defs>
	<g clip-path="url(#clip_0)">
		<path fill="rgb(205,226,243)" stroke="none" d="M17.0733 10.9852L14.779 8.69118C14.1615 8.07366 13.4117 7.76473 12.5293 7.76473C11.6321 7.76473 10.8676 8.08826 10.2352 8.73534L9.26458 7.76473C9.91168 7.13241 10.2352 6.36411 10.2352 5.45956C10.2352 4.57719 9.93007 3.83098 9.31971 3.22057L7.04765 0.937581C6.43736 0.312604 5.68739 0 4.79773 0C3.91536 0 3.16906 0.305264 2.55877 0.915561L0.937449 2.52583C0.312444 3.13628 0 3.88248 0 4.76478C0 5.64715 0.30889 6.39726 0.926439 7.01486L3.22052 9.3089C3.83822 9.92653 4.58819 10.2354 5.47055 10.2354C6.36752 10.2354 7.13225 9.91185 7.76455 9.2647L8.73515 10.2354C8.08809 10.8678 7.76455 11.636 7.76455 12.5406C7.76455 13.423 8.06966 14.169 8.67998 14.7795L10.9522 17.0624C11.5626 17.6874 12.3123 18 13.202 18C14.0845 18 14.8304 17.6949 15.441 17.0845L17.0624 15.4743C17.6873 14.8638 18 14.1176 18 13.2353C17.9998 12.353 17.691 11.6031 17.0733 10.9852ZM7.76471 6.26502C7.74265 6.24296 7.67455 6.17316 7.56074 6.05549C7.44686 5.93782 7.36778 5.85878 7.3237 5.81829C7.27955 5.77784 7.20967 5.72272 7.11409 5.65272C7.01837 5.58283 6.92473 5.53512 6.83286 5.50936C6.74092 5.48363 6.63979 5.4708 6.52946 5.4708C6.23544 5.4708 5.98538 5.57379 5.77948 5.77958C5.57358 5.98537 5.47075 6.23539 5.47075 6.52957C5.47075 6.63978 5.48357 6.74092 5.5093 6.83286C5.53503 6.92488 5.58282 7.0186 5.65266 7.11414C5.72254 7.20971 5.77771 7.2796 5.81811 7.32375C5.85844 7.36783 5.93748 7.44691 6.05515 7.56091C6.17282 7.67487 6.24263 7.74282 6.26468 7.76492C6.04406 7.99277 5.77937 8.10673 5.47063 8.10673C5.16916 8.10673 4.9191 8.00752 4.72066 7.80908L2.42639 5.51492C2.2206 5.30902 2.11765 5.05899 2.11765 4.76482C2.11765 4.47814 2.22049 4.23186 2.42639 4.02596L4.04775 2.41553C4.26111 2.21697 4.51097 2.11788 4.79784 2.11788C5.09186 2.11788 5.34188 2.22076 5.54782 2.42666L7.8198 4.70965C8.0257 4.91556 8.12853 5.16554 8.12853 5.45964C8.12857 5.76834 8.00727 6.03679 7.76471 6.26502ZM13.9524 15.5844L15.5738 13.974C15.7794 13.7686 15.8823 13.5221 15.8823 13.2356C15.8823 12.9416 15.7794 12.6914 15.5734 12.4855L13.2792 10.1915C13.0735 9.98552 12.8237 9.88265 12.5294 9.88265C12.2208 9.88265 11.9562 10.0003 11.7354 10.2357C11.7576 10.2576 11.8274 10.3256 11.9451 10.4395C12.0627 10.5537 12.1418 10.6328 12.1822 10.6767C12.2228 10.7209 12.2777 10.7909 12.3476 10.8864C12.4178 10.9819 12.4654 11.0757 12.4913 11.1677C12.5169 11.2596 12.5299 11.3607 12.5299 11.471C12.5299 11.765 12.4268 12.015 12.2211 12.2208C12.0152 12.4267 11.7653 12.5296 11.471 12.5296C11.3608 12.5296 11.2597 12.5168 11.1677 12.491C11.0757 12.4654 10.9821 12.4176 10.8864 12.3476C10.791 12.2777 10.7212 12.2225 10.677 12.1819C10.6328 12.1415 10.5538 12.0624 10.4398 11.9447C10.3259 11.8273 10.2579 11.7573 10.2357 11.7354C9.993 11.9633 9.87178 12.2317 9.87178 12.5405C9.87178 12.8345 9.97449 13.0843 10.1804 13.2903L12.4524 15.5735C12.651 15.7721 12.9006 15.8712 13.2022 15.8712C13.4965 15.8712 13.7464 15.7755 13.9524 15.5844Z" fill-rule="evenodd"/>
	</g>

</svg>