<?xml version="1.0" encoding="utf-8" ?>
<svg xmlns="http://www.w3.org/2000/svg" xmlns:xlink="http://www.w3.org/1999/xlink" width="44" height="28">
	<defs>
		<clipPath id="clip_0">
			<rect x="-773" y="-176" width="1920" height="2110" clip-rule="evenodd"/>
		</clipPath>
	</defs>
	<g clip-path="url(#clip_0)">
		<path fill="rgb(80,148,218)" stroke="none" d="M37.5 5L41 11.9999L44 13.5L43.9878 25L39.8707 25C39.8707 25 38.8022 28 36 28C33.1978 28 32.1287 25 32.1287 25L24.8735 25C24.8735 25 23.807 28 21.0027 28C18.1984 28 17.132 25 17.132 25L15.8713 25C15.8713 25 14.8669 28 11.994 28C9.12106 28 8.12778 25 8.12778 25L6.02112 25L4 27.0005L0 27.0005L0 6.66621L7.67238 0L30 0L30 5L37.5 5ZM28 23L24.8735 23C24.8735 23 23.807 20 21.0027 20C18.1984 20 17.132 23 17.132 23L15.8713 23C15.8713 23 14.8669 20 11.994 20C9.12107 20 8.12778 23 8.12778 23L5.5 23L3.5 25L2 25L2 7.5L8.5 2L28 2L28 23ZM30 6.99993L33 6.99993L33 11.9999L30 11.9999L30 6.99993ZM39 11.9999L36.5 6.99993L35 6.99993L35 11.9999L39 11.9999ZM6 7L24 7L24 9L6 9L6 7ZM24 11L6 11L6 13L24 13L24 11ZM39.8707 23L42 23L42 14.5L40.5 14L30 14L30 23L32.1287 23C32.1287 23 33.1978 20 36 20C38.8022 20 39.8707 23 39.8707 23ZM6 15L24 15L24 17L6 17L6 15ZM13 24C13 24.5523 12.5523 25 12 25C11.4477 25 11 24.5523 11 24C11 23.4477 11.4477 23 12 23C12.5523 23 13 23.4477 13 24ZM22 24C22 24.5523 21.5523 25 21 25C20.4477 25 20 24.5523 20 24C20 23.4477 20.4477 23 21 23C21.5523 23 22 23.4477 22 24ZM37 24C37 24.5523 36.5523 25 36 25C35.4477 25 35 24.5523 35 24C35 23.4477 35.4477 23 36 23C36.5523 23 37 23.4477 37 24Z" fill-rule="evenodd"/>
	</g>

</svg>