<?xml version="1.0" encoding="UTF-8"?>
<svg width="40px" height="28px" viewBox="0 0 40 28" version="1.1" xmlns="http://www.w3.org/2000/svg" xmlns:xlink="http://www.w3.org/1999/xlink">
    <!-- Generator: Sketch 51.3 (57544) - http://www.bohemiancoding.com/sketch -->
    <title>truck</title>
    <desc>Created with Sketch.</desc>
    <defs></defs>
    <g id="pages/home" stroke="none" stroke-width="1" fill="none" fill-rule="evenodd">
        <g id="pages/home/ro-home-xl" transform="translate(-775.000000, -176.000000)" fill="#5094DA" fill-rule="nonzero">
            <g id="Действия-с-региональным-оператором" transform="translate(0.000000, 100.000000)">
                <g id="Вступительный-блок" transform="translate(340.000000, 50.000000)">
                    <path d="M472,37.9999414 L468.5,31 L462,31 L462,26 L442.672383,26 L435,32.6662109 L435,53.0005176 L439,53.0005176 L441.021118,51 L442.127777,51 C442.789969,53 444.078711,54 445.994004,54 C447.909297,54 449.201721,53 449.871277,51 L451.131989,51 C451.842926,53 453.133158,54 455.002686,54 C456.872213,54 458.162476,53 458.873474,51 L463.128723,51 C463.841458,53 465.131884,54 467,54 C468.868116,54 470.158338,53 470.870667,51 L474.987812,51 L475,39.5 L472,37.9999414 Z M467.5,32.9999316 L470,37.9999414 L466,37.9999414 L466,32.9999316 L467.5,32.9999316 Z M462,32.9999316 L464,32.9999316 L464,37.9999414 L462,37.9999414 L462,32.9999316 Z M473,49 L470.870667,49 C470.158338,47 468.868116,46 467,46 C465.131884,46 463.841458,47 463.128723,49 L462,49 L462,40 L471.5,40 L473,40.5 L473,49 Z M460,49 L458.873474,49 C458.162476,47 456.872213,46 455.002686,46 C453.133158,46 451.842926,47 451.131989,49 L449.871277,49 C449.201721,47 447.909297,46 445.994004,46 C444.078711,46 442.789969,47 442.127777,49 L440.5,49 L438.5,51 L437,51 L437,33.5 L443.5,28 L460,28 L460,49 Z M456,33 L441,33 L441,35 L456,35 L456,33 Z M456,37 L441,37 L441,39 L456,39 L456,37 Z M456,41 L441,41 L441,43 L456,43 L456,41 Z M467,52 C465.895431,52 465,51.1045695 465,50 C465,48.8954305 465.895431,48 467,48 C468.104569,48 469,48.8954305 469,50 C469,51.1045695 468.104569,52 467,52 Z M467,51 C466.447715,51 466,50.5522847 466,50 C466,49.4477153 466.447715,49 467,49 C467.552285,49 468,49.4477153 468,50 C468,50.5522847 467.552285,51 467,51 Z M455,52 C453.895431,52 453,51.1045695 453,50 C453,48.8954305 453.895431,48 455,48 C456.104569,48 457,48.8954305 457,50 C457,51.1045695 456.104569,52 455,52 Z M455,51 C454.447715,51 454,50.5522847 454,50 C454,49.4477153 454.447715,49 455,49 C455.552285,49 456,49.4477153 456,50 C456,50.5522847 455.552285,51 455,51 Z M446,52 C444.895431,52 444,51.1045695 444,50 C444,48.8954305 444.895431,48 446,48 C447.104569,48 448,48.8954305 448,50 C448,51.1045695 447.104569,52 446,52 Z M446,51 C446.552285,51 447,50.5522847 447,50 C447,49.4477153 446.552285,49 446,49 C445.447715,49 445,49.4477153 445,50 C445,50.5522847 445.447715,51 446,51 Z" id="truck"></path>
                </g>
            </g>
        </g>
    </g>
</svg>